<svg width="80" height="84" viewBox="0 0 80 84" fill="none" xmlns="http://www.w3.org/2000/svg">
<path fill-rule="evenodd" clip-rule="evenodd" d="M77.956 -0.00998487H66.032C65.7661 -0.0113052 65.5026 0.039909 65.2567 0.140894C65.0107 0.241879 64.7872 0.390622 64.5989 0.578394C64.4107 0.766166 64.2615 0.989429 64.1599 1.23513C64.0583 1.48084 64.0064 1.74416 64.007 2.01003V6.17996H15.86V2.01003C15.8607 1.74424 15.8088 1.48101 15.7072 1.23538C15.6057 0.989739 15.4566 0.766641 15.2684 0.578882C15.0803 0.391124 14.8569 0.242427 14.611 0.141382C14.3652 0.040338 14.1018 -0.0111729 13.836 -0.00998487H2.02399C1.75812 -0.0113052 1.49462 0.039909 1.24866 0.140894C1.00271 0.241879 0.779185 0.390622 0.590949 0.578394C0.402712 0.766166 0.253516 0.989429 0.151923 1.23513C0.05033 1.48084 -0.00163332 1.74416 -0.000970297 2.01003V14.2801C-0.00163332 14.5459 0.05033 14.8093 0.151923 15.055C0.253516 15.3007 0.402712 15.5239 0.590949 15.7117C0.779185 15.8995 1.00271 16.048 1.24866 16.149C1.49462 16.2499 1.75812 16.3014 2.02399 16.3001H13.948C14.2139 16.3014 14.4774 16.2499 14.7233 16.149C14.9693 16.048 15.1928 15.8995 15.381 15.7117C15.5693 15.5239 15.7185 15.3007 15.8201 15.055C15.9217 14.8093 15.9737 14.5459 15.973 14.2801V10.1101H38.134C37.909 15.0601 25.872 38.3501 18.223 52.0801C18.0175 52.4844 17.9503 52.9448 18.0316 53.3909C18.1128 53.837 18.3381 54.2443 18.673 54.5501C25.535 60.4001 27.222 66.1401 27.673 69.0701H25.086C24.8201 69.0688 24.5566 69.12 24.3107 69.221C24.0647 69.322 23.8412 69.4707 23.653 69.6585C23.4647 69.8462 23.3155 70.0693 23.2139 70.315C23.1123 70.5607 23.0603 70.8242 23.061 71.0901V80.99C23.0594 81.2566 23.1107 81.5209 23.2118 81.7676C23.3129 82.0143 23.462 82.2385 23.6503 82.4273C23.8386 82.616 24.0624 82.7655 24.3088 82.8672C24.5553 82.969 24.8194 83.021 25.086 83.02H55.009C55.2756 83.021 55.5398 82.969 55.7862 82.8672C56.0326 82.7655 56.2565 82.616 56.4448 82.4273C56.6331 82.2385 56.782 82.0143 56.8832 81.7676C56.9843 81.5209 57.0356 81.2566 57.034 80.99V71.0901C57.0347 70.8242 56.9827 70.5607 56.8811 70.315C56.7795 70.0693 56.6303 69.8462 56.4421 69.6585C56.2538 69.4707 56.0303 69.322 55.7844 69.221C55.5384 69.12 55.2749 69.0688 55.009 69.0701H52.42C52.87 66.1401 54.558 60.4001 61.42 54.5501C61.7589 54.247 61.9872 53.8394 62.0687 53.3921C62.1502 52.9448 62.0803 52.4833 61.87 52.0801C54.22 38.3501 42.184 14.9501 41.959 10.1101H64.007V14.2801C64.0064 14.5459 64.0583 14.8093 64.1599 15.055C64.2615 15.3007 64.4107 15.5239 64.5989 15.7117C64.7872 15.8995 65.0107 16.048 65.2567 16.149C65.5026 16.2499 65.7661 16.3014 66.032 16.3001H77.956C78.2219 16.3014 78.4854 16.2499 78.7313 16.149C78.9773 16.048 79.2008 15.8995 79.389 15.7117C79.5773 15.5239 79.7265 15.3007 79.8281 15.055C79.9297 14.8093 79.9817 14.5459 79.981 14.2801V2.01003C79.9817 1.74416 79.9297 1.48084 79.8281 1.23513C79.7265 0.989429 79.5773 0.766166 79.389 0.578394C79.2008 0.390622 78.9773 0.241879 78.7313 0.140894C78.4854 0.039909 78.2219 -0.0113052 77.956 -0.00998487ZM11.923 12.25H3.93598V3.92996H11.923V12.25ZM40.046 45.22C40.5574 45.2204 41.0572 45.3725 41.4821 45.657C41.9071 45.9415 42.2381 46.3457 42.4333 46.8184C42.6285 47.2911 42.6791 47.8108 42.5787 48.3123C42.4784 48.8137 42.2315 49.2742 41.8694 49.6353C41.5073 49.9964 41.0462 50.2421 40.5445 50.3411C40.0428 50.4401 39.523 50.3882 39.0508 50.1917C38.5787 49.9952 38.1754 49.663 37.8921 49.2373C37.6087 48.8116 37.458 48.3115 37.459 47.8001C37.486 47.1233 37.7674 46.4815 38.247 46.0032C38.7266 45.5249 39.3691 45.2452 40.046 45.22ZM53.095 78.8601H27.11V72.8899H53.1V78.8601H53.095ZM48.483 68.95H31.609C31.159 65.69 29.472 59.1701 22.385 52.5301C25.085 47.5801 33.185 32.73 38.021 21.7V41.6201C36.7091 42.0344 35.5644 42.8579 34.7546 43.97C33.9448 45.0821 33.5125 46.4244 33.521 47.8001C33.5167 49.0041 33.8457 50.1858 34.4714 51.2144C35.0972 52.243 35.9953 53.0784 37.0664 53.6282C38.1376 54.178 39.3399 54.4206 40.5405 54.3294C41.741 54.2381 42.8929 53.8165 43.8686 53.1111C44.8443 52.4058 45.6059 51.4442 46.069 50.3328C46.5321 49.2214 46.6787 48.0037 46.4925 46.8142C46.3063 45.6247 45.7946 44.5098 45.0141 43.593C44.2336 42.6763 43.2146 41.9936 42.07 41.6201V21.5901C47.02 32.6201 55.007 47.4701 57.706 52.5301C50.621 59.1701 48.933 65.69 48.483 68.95ZM76.044 12.25H68.057V4.04006H76.044V12.25Z" fill="#3C3C3C"/>
</svg>
