<svg width="69" height="71" viewBox="0 0 69 71" fill="none" xmlns="http://www.w3.org/2000/svg">
<g clip-path="url(#clip0)">
<path fill-rule="evenodd" clip-rule="evenodd" d="M63.675 68.857L34.86 13.857L6.04602 68.857H63.675Z" stroke="white" stroke-width="2"/>
<path fill-rule="evenodd" clip-rule="evenodd" d="M34.5 1C41.0572 1.05607 47.4511 3.05174 52.876 6.73557C58.3009 10.4194 62.5141 15.6265 64.9846 21.7008C67.455 27.7751 68.0723 34.4447 66.7586 40.8692C65.4449 47.2937 62.259 53.1856 57.6024 57.8025C52.9457 62.4194 47.0267 65.5547 40.5911 66.8133C34.1556 68.0718 27.4915 67.3974 21.4387 64.8749C15.3858 62.3524 10.215 58.0948 6.57782 52.6385C2.94064 47.1822 0.999845 40.7714 1 34.214C1.01874 29.8335 1.90013 25.4995 3.59381 21.4597C5.28749 17.4198 7.76032 13.753 10.8711 10.6688C13.9819 7.58461 17.6696 5.14333 21.7239 3.48435C25.7781 1.82536 30.1195 0.981183 34.5 1V1Z" stroke="#F6F7FC" stroke-width="2"/>
<path fill-rule="evenodd" clip-rule="evenodd" d="M34.86 63.857C35.5652 63.8625 36.2531 64.0767 36.8368 64.4726C37.4205 64.8684 37.874 65.4282 38.1401 66.0814C38.4061 66.7345 38.4729 67.4518 38.3319 68.1429C38.1909 68.8339 37.8486 69.4677 37.3479 69.9645C36.8473 70.4613 36.2107 70.7987 35.5186 70.9343C34.8265 71.0698 34.1097 70.9975 33.4587 70.7263C32.8076 70.4552 32.2514 69.9973 31.8601 69.4105C31.4688 68.8238 31.26 68.1343 31.26 67.429C31.264 66.478 31.6454 65.5675 32.3205 64.8977C32.9956 64.2279 33.909 63.8535 34.86 63.857Z" fill="white"/>
<path d="M61.515 71.032C63.5088 71.032 65.125 69.4158 65.125 67.422C65.125 65.4283 63.5088 63.812 61.515 63.812C59.5213 63.812 57.905 65.4283 57.905 67.422C57.905 69.4158 59.5213 71.032 61.515 71.032Z" fill="white"/>
<path fill-rule="evenodd" clip-rule="evenodd" d="M6.04303 63.857C6.74829 63.8625 7.43612 64.0767 8.01984 64.4726C8.60355 64.8684 9.05699 65.4282 9.32306 66.0814C9.58913 66.7345 9.65586 67.4518 9.51489 68.1429C9.37392 68.8339 9.03153 69.4677 8.53088 69.9645C8.03023 70.4613 7.39372 70.7987 6.7016 70.9343C6.00947 71.0698 5.29273 70.9975 4.64166 70.7263C3.99059 70.4552 3.43436 69.9973 3.04309 69.4105C2.65182 68.8238 2.44301 68.1343 2.44299 67.429C2.44696 66.478 2.8284 65.5675 3.50348 64.8977C4.17855 64.2279 5.09204 63.8535 6.04303 63.857Z" fill="white"/>
</g>
<defs>
<clipPath id="clip0">
<rect width="69" height="71" fill="white"/>
</clipPath>
</defs>
</svg>
