<svg width="79" height="91" viewBox="0 0 79 91" fill="none" xmlns="http://www.w3.org/2000/svg">
<path fill-rule="evenodd" clip-rule="evenodd" d="M21.756 38.1101C21.3416 38.1114 20.9433 37.9496 20.647 37.6599L17.547 34.5801C17.4016 34.4361 17.2862 34.2647 17.2075 34.0759C17.1287 33.8871 17.0882 33.6846 17.0882 33.48C17.0882 33.2754 17.1287 33.0728 17.2075 32.884C17.2862 32.6952 17.4016 32.5238 17.547 32.3799C17.8419 32.0868 18.2407 31.9224 18.6565 31.9224C19.0722 31.9224 19.4711 32.0868 19.766 32.3799L21.755 34.3501L26.841 29.3C27.1359 29.007 27.5348 28.8425 27.9505 28.8425C28.3662 28.8425 28.7651 29.007 29.06 29.3C29.2056 29.4439 29.3212 29.6151 29.4001 29.804C29.4791 29.9928 29.5197 30.1953 29.5197 30.3999C29.5197 30.6046 29.4791 30.8073 29.4001 30.9961C29.3212 31.1849 29.2056 31.3562 29.06 31.5L22.86 37.6599C22.5643 37.9475 22.1684 38.1091 21.756 38.1101ZM54.311 35.04H35.637C35.2233 35.04 34.8265 34.8756 34.5339 34.583C34.2414 34.2905 34.077 33.8937 34.077 33.48C34.077 33.0662 34.2414 32.6695 34.5339 32.377C34.8265 32.0844 35.2233 31.9199 35.637 31.9199H54.311C54.7247 31.9199 55.1215 32.0844 55.4141 32.377C55.7066 32.6695 55.871 33.0662 55.871 33.48C55.871 33.8937 55.7066 34.2905 55.4141 34.583C55.1215 34.8756 54.7247 35.04 54.311 35.04ZM21.756 64.79C21.3416 64.7914 20.9433 64.6298 20.647 64.3401L17.547 61.26C17.4016 61.1161 17.2862 60.9447 17.2075 60.7559C17.1287 60.5671 17.0882 60.3645 17.0882 60.1599C17.0882 59.9553 17.1287 59.7528 17.2075 59.564C17.2862 59.3752 17.4016 59.204 17.547 59.0601C17.8419 58.767 18.2407 58.6025 18.6565 58.6025C19.0722 58.6025 19.4711 58.767 19.766 59.0601L21.755 61.03L26.841 55.98C27.1359 55.6869 27.5348 55.5225 27.9505 55.5225C28.3662 55.5225 28.7651 55.6869 29.06 55.98C29.2056 56.1238 29.3212 56.2951 29.4001 56.4839C29.4791 56.6727 29.5197 56.8754 29.5197 57.0801C29.5197 57.2847 29.4791 57.4872 29.4001 57.676C29.3212 57.8649 29.2056 58.0361 29.06 58.1799L22.86 64.3401C22.5643 64.6277 22.1684 64.789 21.756 64.79ZM54.311 61.72H35.637C35.2233 61.72 34.8265 61.5557 34.5339 61.2632C34.2414 60.9706 34.077 60.5737 34.077 60.1599C34.077 59.7462 34.2414 59.3494 34.5339 59.0569C34.8265 58.7643 35.2233 58.6001 35.637 58.6001H54.311C54.7247 58.6001 55.1215 58.7643 55.4141 59.0569C55.7066 59.3494 55.871 59.7462 55.871 60.1599C55.871 60.5737 55.7066 60.9706 55.4141 61.2632C55.1215 61.5557 54.7247 61.72 54.311 61.72ZM21.756 78.1399C21.3404 78.1375 20.9423 77.9724 20.647 77.6799L17.547 74.6001C17.4016 74.4562 17.2862 74.2848 17.2075 74.0959C17.1287 73.9071 17.0882 73.7046 17.0882 73.5C17.0882 73.2954 17.1287 73.0929 17.2075 72.9041C17.2862 72.7152 17.4016 72.5438 17.547 72.3999C17.8419 72.1068 18.2407 71.9424 18.6565 71.9424C19.0722 71.9424 19.4711 72.1068 19.766 72.3999L21.755 74.3701L26.841 69.3201C27.1359 69.027 27.5348 68.8625 27.9505 68.8625C28.3662 68.8625 28.7651 69.027 29.06 69.3201C29.2058 69.4648 29.3215 69.6368 29.4005 69.8264C29.4794 70.0161 29.5201 70.2196 29.5201 70.425C29.5201 70.6305 29.4794 70.8338 29.4005 71.0234C29.3215 71.2131 29.2058 71.3853 29.06 71.53L22.86 77.6799C22.5653 77.9702 22.1696 78.135 21.756 78.1399ZM54.311 75.0601H35.637C35.2233 75.0601 34.8265 74.8956 34.5339 74.603C34.2414 74.3105 34.077 73.9137 34.077 73.5C34.077 73.0863 34.2414 72.6895 34.5339 72.397C34.8265 72.1044 35.2233 71.9399 35.637 71.9399H54.311C54.7247 71.9399 55.1215 72.1044 55.4141 72.397C55.7066 72.6895 55.871 73.0863 55.871 73.5C55.871 73.9137 55.7066 74.3105 55.4141 74.603C55.1215 74.8956 54.7247 75.0601 54.311 75.0601ZM21.756 51.45C21.3416 51.4513 20.9433 51.2897 20.647 51L17.547 47.9199C17.4016 47.775 17.2862 47.603 17.2075 47.4133C17.1287 47.2237 17.0882 47.0203 17.0882 46.8149C17.0882 46.6096 17.1287 46.4064 17.2075 46.2168C17.2862 46.0272 17.4016 45.8549 17.547 45.71C17.8443 45.4214 18.2422 45.26 18.6565 45.26C19.0708 45.26 19.4687 45.4214 19.766 45.71L21.755 47.6899L26.841 42.6399C27.1359 42.3468 27.5348 42.1824 27.9505 42.1824C28.3662 42.1824 28.7651 42.3468 29.06 42.6399C29.2057 42.7836 29.3215 42.955 29.4005 43.1438C29.4794 43.3326 29.5201 43.5353 29.5201 43.74C29.5201 43.9447 29.4794 44.1473 29.4005 44.3362C29.3215 44.525 29.2057 44.6964 29.06 44.8401L22.86 51C22.5643 51.2876 22.1684 51.4489 21.756 51.45ZM54.311 48.3799H35.637C35.2233 48.3799 34.8265 48.2157 34.5339 47.9231C34.2414 47.6305 34.077 47.2338 34.077 46.8201C34.077 46.4063 34.2414 46.0094 34.5339 45.7168C34.8265 45.4242 35.2233 45.26 35.637 45.26H54.311C54.7247 45.26 55.1215 45.4242 55.4141 45.7168C55.7066 46.0094 55.871 46.4063 55.871 46.8201C55.871 47.2338 55.7066 47.6305 55.4141 47.9231C55.1215 48.2157 54.7247 48.3799 54.311 48.3799ZM76.888 11.3999H58.422C58.3076 9.85162 57.6101 8.40452 56.4704 7.35034C55.3307 6.29617 53.8335 5.71347 52.281 5.71997H46.3C46.2799 4.19187 45.6589 2.73318 44.5712 1.65967C43.4835 0.586154 42.0168 -0.0158691 40.4885 -0.0158691C38.9603 -0.0158691 37.4935 0.586154 36.4058 1.65967C35.3181 2.73318 34.697 4.19187 34.677 5.71997H28.683C27.1319 5.71506 25.6368 6.29843 24.499 7.35254C23.3612 8.40665 22.6654 9.853 22.552 11.3999H2.08099C1.52791 11.3988 0.997009 11.6174 0.604797 12.0073C0.212586 12.3973 -0.00886826 12.9269 -0.0109863 13.48V88.9199C-0.0107262 89.194 0.043614 89.4655 0.148987 89.7185C0.25436 89.9715 0.408662 90.2013 0.603027 90.3945C0.797393 90.5878 1.02799 90.7406 1.28162 90.8445C1.53524 90.9484 1.80691 91.0013 2.08099 91H76.888C77.1621 91.0013 77.4338 90.9486 77.6875 90.8447C77.9412 90.7408 78.1719 90.5878 78.3663 90.3945C78.5608 90.2013 78.7151 89.9715 78.8206 89.7185C78.9261 89.4655 78.9806 89.1941 78.981 88.9199V13.48C78.9786 12.9268 78.7569 12.3973 78.3646 12.0073C77.9722 11.6174 77.4412 11.3988 76.888 11.3999ZM26.711 11.8401C26.7123 11.3193 26.9204 10.8202 27.2894 10.4526C27.6584 10.0851 28.1582 9.87909 28.679 9.87988H35.218C36.1792 9.88281 37.1023 9.50463 37.7849 8.82788C38.4674 8.15113 38.8537 7.23119 38.859 6.27002V5.79004C38.859 5.35853 39.0304 4.94477 39.3355 4.63965C39.6406 4.33453 40.0545 4.16309 40.486 4.16309C40.9175 4.16309 41.3314 4.33453 41.6365 4.63965C41.9416 4.94477 42.113 5.35853 42.113 5.79004V6.27002C42.1175 7.22953 42.502 8.1481 43.1824 8.82471C43.8627 9.50131 44.7835 9.88069 45.743 9.87988H52.282C52.5406 9.87844 52.797 9.9281 53.0364 10.0259C53.2758 10.1237 53.4935 10.2676 53.6772 10.4497C53.8608 10.6318 54.0067 10.8484 54.1066 11.0869C54.2064 11.3255 54.2582 11.5815 54.259 11.8401V16.1001H26.713V11.8401H26.711ZM74.796 86.8401H4.17297V15.5601H22.526V18.1799C22.5263 18.454 22.5807 18.7255 22.686 18.9785C22.7914 19.2315 22.9456 19.4613 23.14 19.6545C23.3344 19.8478 23.565 20.0006 23.8187 20.1045C24.0723 20.2084 24.3439 20.2613 24.618 20.26H56.349C56.6231 20.2613 56.8948 20.2084 57.1484 20.1045C57.402 20.0006 57.6326 19.8478 57.827 19.6545C58.0213 19.4613 58.1756 19.2315 58.281 18.9785C58.3864 18.7255 58.4407 18.454 58.441 18.1799V15.5601H74.794V86.8401H74.796ZM40.485 10.1399C40.8801 10.1419 41.2658 10.261 41.5934 10.4819C41.921 10.7029 42.1758 11.016 42.3256 11.3816C42.4755 11.7472 42.5137 12.1491 42.4354 12.5364C42.3571 12.9237 42.1658 13.2789 41.8857 13.5576C41.6056 13.8363 41.2492 14.0259 40.8615 14.1023C40.4738 14.1787 40.0722 14.1385 39.7073 13.9868C39.3425 13.8352 39.0307 13.5787 38.8114 13.25C38.5921 12.9213 38.475 12.535 38.475 12.1399C38.475 11.8764 38.527 11.6156 38.6282 11.3723C38.7293 11.129 38.8776 10.908 39.0643 10.7222C39.2511 10.5363 39.4727 10.3892 39.7166 10.2893C39.9604 10.1894 40.2215 10.1386 40.485 10.1399Z" fill="#3C3C3C"/>
</svg>
