<svg width="23" height="37" viewBox="0 0 23 37" fill="none" xmlns="http://www.w3.org/2000/svg">
<g clip-path="url(#clip0)">
<path fill-rule="evenodd" clip-rule="evenodd" d="M11.5 9.75702C11.1718 9.75662 10.8508 9.85359 10.5778 10.0356C10.3047 10.2177 10.0918 10.4766 9.96588 10.7797C9.84001 11.0828 9.80682 11.4165 9.87061 11.7384C9.93439 12.0603 10.0923 12.3562 10.3242 12.5884C10.5562 12.8206 10.8517 12.9788 11.1736 13.043C11.4955 13.1071 11.8291 13.0744 12.1324 12.9489C12.4356 12.8234 12.6949 12.6108 12.8773 12.3379C13.0596 12.065 13.157 11.7442 13.157 11.416C13.1567 10.9764 12.9821 10.5549 12.6715 10.2439C12.3609 9.93289 11.9396 9.75781 11.5 9.75702ZM10.546 -0.00701904C7.6754 0.226145 4.99743 1.53029 3.04376 3.64642C1.0901 5.76255 0.00359755 8.53595 0 11.416V25.49C0 28.54 1.21162 31.465 3.36829 33.6217C5.52495 35.7784 8.45001 36.99 11.5 36.99C14.55 36.99 17.475 35.7784 19.6317 33.6217C21.7884 31.465 23 28.54 23 25.49V11.416C22.995 8.53651 21.9082 5.764 19.955 3.64819C18.0018 1.53238 15.3249 0.227732 12.455 -0.00701904H10.546ZM11.501 35.093C8.95703 35.0888 6.51864 34.0757 4.72064 32.276C2.92264 30.4763 1.91182 28.0369 1.90997 25.493V11.416C1.90997 8.87232 2.92045 6.43282 4.71912 4.63416C6.51778 2.83549 8.95728 1.82501 11.501 1.82501C14.0447 1.82501 16.4842 2.83549 18.2828 4.63416C20.0815 6.43282 21.092 8.87232 21.092 11.416V25.49C21.0904 28.0343 20.0796 30.4741 18.2814 32.274C16.4831 34.0739 14.0443 35.087 11.5 35.091L11.501 35.093Z" fill="white"/>
</g>
<defs>
<clipPath id="clip0">
<rect width="23" height="37" fill="white"/>
</clipPath>
</defs>
</svg>
